<svg width="20" height="20" viewBox="0 0 20 20" fill="none" xmlns="http://www.w3.org/2000/svg">
<path d="M20 10.0001C20 10.5606 19.658 11.0238 19.2143 11.0971L19.0909 11.1072L3.1103 11.1064L8.88362 18.1084C9.23941 18.5398 9.24065 19.2408 8.88639 19.6741C8.56434 20.0679 8.05935 20.105 7.70289 19.7844L7.60074 19.6774L0.26741 10.7853C0.220512 10.7284 0.179777 10.6668 0.145205 10.6018C0.135441 10.5823 0.125502 10.5623 0.116077 10.5419C0.10741 10.5244 0.099577 10.5062 0.0921879 10.4878C0.0819244 10.4611 0.0718975 10.4335 0.0627937 10.4053C0.055397 10.3836 0.049221 10.3624 0.0435867 10.3411C0.0368881 10.3147 0.0303802 10.2866 0.0247841 10.258C0.0206223 10.238 0.0173264 10.2188 0.014452 10.1996C0.0104084 10.1709 0.00696754 10.1412 0.00451279 10.1112C0.00239182 10.0882 0.0011158 10.0655 0.00041008 10.0428C0.000228882 10.0291 0 10.0146 0 10.0001L0.000453949 9.95726C0.00115204 9.93553 0.00237083 9.91382 0.00411224 9.89217L0 10.0001C0 9.93028 0.00531387 9.86193 0.0154762 9.79566C0.0178318 9.77983 0.0206413 9.76358 0.0237503 9.7474C0.0302086 9.71407 0.0376701 9.68198 0.0462627 9.65052C0.0504818 9.63488 0.0553951 9.61818 0.0606461 9.6016C0.07127 9.56829 0.0828171 9.53654 0.09552 9.5056C0.101421 9.49106 0.10803 9.47583 0.114952 9.46076C0.126312 9.43617 0.138016 9.4128 0.150391 9.39003C0.159122 9.37391 0.168791 9.35713 0.178888 9.34061L0.186756 9.32785C0.211248 9.28889 0.237818 9.25196 0.266266 9.21731L0.267357 9.21629L7.60069 0.322641C7.95645 -0.10881 8.53205 -0.107358 8.88634 0.325882C9.20841 0.719738 9.23671 1.33486 8.97191 1.7676L8.88367 1.89154L3.11273 8.89217L19.0909 8.89305C19.593 8.89305 20 9.38872 20 10.0001Z" fill="white"/>
</svg>
