<svg width="40" height="40" viewBox="0 0 40 40" fill="none" xmlns="http://www.w3.org/2000/svg">
<path id="Vector" d="M36.938 16.925C36.4424 7.525 29.258 0 20.5929 0H19.4133C10.8047 0 3.62667 7.45625 3.06196 16.7812C2.19753 16.96 1.42125 17.4298 0.86362 18.1116C0.305992 18.7933 0.00102823 19.6456 0 20.525V24.6313C0 26.7375 1.71922 28.4562 3.83373 28.4562C5.00078 28.4562 6.04235 27.9375 6.7451 27.1187C8.60863 33.95 13.3271 39.8563 19.6078 40H19.8275C24.3326 40 28.1475 36.9563 30.7012 32.7063L32.0439 32.6875C34.5349 32.6875 36.5992 30.8687 36.9882 28.5C38.7075 28.125 40 26.5938 40 24.7688V20.6625C39.9967 19.7844 39.6908 18.934 39.1334 18.2537C38.5761 17.5733 37.801 17.1043 36.938 16.925ZM5.87294 24.6313C5.87294 25.75 4.95686 26.6625 3.83373 26.6625C2.71059 26.6625 1.79451 25.75 1.79451 24.6313V20.525C1.79451 19.4062 2.71059 18.4937 3.83373 18.4937C4.95686 18.4937 5.87294 19.4062 5.87294 20.525V24.6313ZM6.6949 15.0812C6.63843 15.1875 6.60078 15.3 6.58824 15.425C6.4 16.0875 6.25569 16.775 6.13647 17.475C5.76 17.1938 5.32706 16.975 4.85647 16.8438C5.38353 8.475 11.7647 1.7875 19.4133 1.79375H20.5929C28.2918 1.79375 34.6792 8.54375 35.1435 16.9875C34.698 17.1063 34.2902 17.3062 33.9263 17.5625C33.8698 17.1625 33.8008 16.775 33.7255 16.3937C33.7255 16.3813 33.7192 16.3687 33.7192 16.3563C32.3074 9.475 27.2565 4.88125 20.3859 4.73125C13.8416 4.575 8.62745 8.725 6.6949 15.0812ZM31.6988 15.725C20.7184 15.9312 16.8784 11.1938 16.8471 11.15C16.7714 11.0513 16.676 10.9692 16.567 10.9089C16.4579 10.8487 16.3375 10.8116 16.2133 10.8C15.9624 10.7812 15.7114 10.8625 15.5231 11.0312C13.8227 12.5813 11.6769 13.6312 8.85333 14.3062C10.7608 9.51875 14.858 6.51875 20.0533 6.51875C20.1537 6.51875 20.2541 6.51875 20.3482 6.525C25.9702 6.64375 30.1867 10.2437 31.6988 15.725ZM29.6471 30.9313L24.8408 30.9937C24.4706 29.9937 23.5106 29.275 22.3812 29.275H20.4298C18.9804 29.275 17.7945 30.45 17.7945 31.8937C17.7945 33.3375 18.9741 34.5187 20.4235 34.5187H22.3749C22.9156 34.5176 23.4427 34.3501 23.8841 34.0391C24.3256 33.7281 24.6597 33.2887 24.8408 32.7812L28.5176 32.7313C26.1961 36.0562 23.0526 38.2062 19.7961 38.2062H19.6329C13.1639 38.0625 7.46039 29.5312 7.66745 20.3C7.69882 18.875 7.88706 17.525 8.20706 16.2688C11.4447 15.6313 14.0298 14.5312 16.0565 12.925C17.5875 14.3688 21.9671 17.525 30.9459 17.525C31.3161 17.525 31.6988 17.5187 32.0816 17.5063C32.251 18.5688 32.3326 19.675 32.3074 20.8438C32.2322 24.5125 31.2282 28.0313 29.6471 30.9313ZM23.2157 31.9C23.2157 32.3563 22.8392 32.7313 22.3812 32.7313H20.4298C19.9718 32.7313 19.5953 32.3563 19.5953 31.9C19.5953 31.4438 19.9718 31.0687 20.4298 31.0687H22.3812C22.8392 31.0687 23.2157 31.4375 23.2157 31.9ZM32.0314 30.9L31.68 30.9062C32.2635 29.7 32.7467 28.4188 33.1294 27.1125C33.6314 27.7625 34.3404 28.2375 35.1561 28.4625C34.9836 29.1582 34.5821 29.7762 34.0158 30.218C33.4494 30.6599 32.7508 30.8999 32.0314 30.9ZM38.1992 24.7688C38.1992 25.8875 37.2831 26.8 36.16 26.8C35.0369 26.8 34.1208 25.8875 34.1208 24.7688V20.6625C34.1208 19.5438 35.0369 18.6313 36.16 18.6313C37.2831 18.6313 38.1992 19.5438 38.1992 20.6625V24.7688Z" fill="#51B2C0"/>
</svg>
